<svg xmlns="http://www.w3.org/2000/svg" viewBox="0 0 64 64" role="img" aria-labelledby="title desc">
  <title id="title">Food</title>
  <desc id="desc">A friendly bowl with two leaves and a heart</desc>
  <defs>
    <linearGradient id="bowl" x1="12" y1="24" x2="51" y2="54" gradientUnits="userSpaceOnUse">
      <stop stop-color="#176044"/>
      <stop offset="1" stop-color="#0b3f31"/>
    </linearGradient>
    <linearGradient id="leafLeft" x1="17" y1="10" x2="31" y2="25" gradientUnits="userSpaceOnUse">
      <stop stop-color="#91b83f"/>
      <stop offset="1" stop-color="#638f2f"/>
    </linearGradient>
    <linearGradient id="leafRight" x1="34" y1="9" x2="49" y2="24" gradientUnits="userSpaceOnUse">
      <stop stop-color="#22684b"/>
      <stop offset="1" stop-color="#0b4433"/>
    </linearGradient>
  </defs>
  <path d="M15.4 28.8h33.2c-.8 13.8-7 21.8-16.6 21.8s-15.8-8-16.6-21.8Z" fill="none" stroke="url(#bowl)" stroke-width="6.4" stroke-linecap="round" stroke-linejoin="round"/>
  <path d="M29.4 23.1c-7.4.4-12.6-3.8-13-11.3 7.1-.8 12.1 3.1 13 11.3Z" fill="url(#leafLeft)"/>
  <path d="M34.6 22.8c.6-7.8 5.7-12 13.1-11.4-.4 7.5-5.7 11.8-13.1 11.4Z" fill="url(#leafRight)"/>
  <path d="M32 39.3c-5-4.1-8.9-7.1-8.9-10.7 0-2.8 2-4.8 4.7-4.8 1.8 0 3.3.9 4.2 2.4.9-1.5 2.4-2.4 4.2-2.4 2.7 0 4.7 2 4.7 4.8 0 3.6-3.9 6.6-8.9 10.7Z" fill="#f06a4f"/>
</svg>